# xmcd
#
# Track frame offsets:
#	150
#	24104
#	44768
#	63526
#	91722
#	109912
#	131201
#	149571
#	170837
#	189080
#	213044
#	241524
#
# Disc length: 3731 seconds
#
# Revision: 0
# Processed by: cddbd v1.5.2PL0 Copyright (c) Steve Scherf et al.
# Submitted via: EasyCDDAExtractor 4.6.0.1
#
DISCID=a30e910c
DTITLE=Jefferson Goncalves - Conexao Nordeste - Greia - AO VIVO
DYEAR=2005
DGENRE=Country, Rock, Foro, Folk, Blues e Baião
TTITLE0=Wild Girl
TTITLE1=Rolling Allong
TTITLE2=How Long Blues
TTITLE3=All Along the Watchtower
TTITLE4=Greia
TTITLE5=Don't Think Twice It's All Right
TTITLE6=Rolling and Tumbling
TTITLE7=Crossroads
TTITLE8=Don't look back
TTITLE9=Café Expresso
TTITLE10=Big Jake
TTITLE11=Mellow Down Easy
EXTD=
EXTT0=
EXTT1=
EXTT2=
EXTT3=
EXTT4=
EXTT5=
EXTT6=
EXTT7=
EXTT8=
EXTT9=
EXTT10=
EXTT11=
PLAYORDER=
